<?xml version="1.0" encoding="UTF-8"?>
<svg xmlns="http://www.w3.org/2000/svg" xmlns:xlink="http://www.w3.org/1999/xlink" width="128pt" height="128pt" viewBox="0 0 128 128" version="1.1">
<g id="surface1581686">
<path style=" stroke:none;fill-rule:nonzero;fill:rgb(100%,100%,100%);fill-opacity:1;" d="M 68.398438 106 C 62 94.800781 49.898438 87.199219 36 87.199219 C 22.101562 87.199219 10 94.800781 3.601562 106.101562 L 3.699219 109.101562 L 68.300781 109.101562 Z M 36 40 C 26.335938 40 18.5 47.835938 18.5 57.5 C 18.5 67.164062 26.335938 75 36 75 C 45.664062 75 53.5 67.164062 53.5 57.5 C 53.5 47.835938 45.664062 40 36 40 Z M 36 40 "/>
<path style=" stroke:none;fill-rule:nonzero;fill:rgb(61.176471%,67.843137%,71.764706%);fill-opacity:1;" d="M 36 77.898438 C 24.699219 77.898438 15.5 68.699219 15.5 57.398438 C 15.5 46.699219 23.898438 37.699219 34.601562 37 C 36.300781 36.898438 37.699219 38.101562 37.800781 39.800781 C 37.898438 41.5 36.699219 42.898438 35 43 C 27.398438 43.5 21.5 49.800781 21.5 57.398438 C 21.5 65.398438 28 71.898438 36 71.898438 C 38.601562 71.898438 41.199219 71.199219 43.398438 69.898438 C 44.800781 69.101562 46.699219 69.5 47.5 70.898438 C 48.300781 72.300781 47.898438 74.199219 46.5 75 C 43.300781 76.898438 39.699219 77.898438 36 77.898438 Z M 3.601562 109 C 3.101562 109 2.601562 108.898438 2.101562 108.601562 C 0.699219 107.800781 0.199219 106 1 104.5 C 6.199219 95.300781 15 88.398438 25.199219 85.601562 C 26.800781 85.199219 28.398438 86.101562 28.898438 87.699219 C 29.300781 89.300781 28.398438 91 26.800781 91.398438 C 18.199219 93.800781 10.699219 99.699219 6.199219 107.5 C 5.699219 108.5 4.699219 109 3.601562 109 Z M 3.601562 109 "/>
<path style=" stroke:none;fill-rule:nonzero;fill:rgb(100%,100%,100%);fill-opacity:1;" d="M 59.601562 106 C 66 94.800781 78.101562 87.199219 92 87.199219 C 105.898438 87.199219 118 94.800781 124.398438 106.101562 L 124.300781 109.101562 L 59.699219 109.101562 Z M 92 40 C 82.335938 40 74.5 47.835938 74.5 57.5 C 74.5 67.164062 82.335938 75 92 75 C 101.664062 75 109.5 67.164062 109.5 57.5 C 109.5 47.835938 101.664062 40 92 40 Z M 92 40 "/>
<path style=" stroke:none;fill-rule:nonzero;fill:rgb(61.176471%,67.843137%,71.764706%);fill-opacity:1;" d="M 92 77.898438 C 88.300781 77.898438 84.699219 76.898438 81.601562 75 C 80.199219 74.199219 79.699219 72.300781 80.601562 70.898438 C 81.398438 69.5 83.300781 69 84.699219 69.898438 C 86.898438 71.199219 89.5 71.898438 92.101562 71.898438 C 100.101562 71.898438 106.601562 65.398438 106.601562 57.398438 C 106.601562 49.800781 100.699219 43.5 93.101562 43 C 91.398438 42.898438 90.199219 41.5 90.300781 39.800781 C 90.398438 38.101562 91.800781 36.898438 93.5 37 C 104.199219 37.699219 112.601562 46.699219 112.601562 57.398438 C 112.5 68.800781 103.300781 77.898438 92 77.898438 Z M 124.398438 109 C 123.398438 109 122.300781 108.5 121.800781 107.5 C 117.398438 99.699219 109.898438 93.800781 101.199219 91.398438 C 99.601562 91 98.699219 89.300781 99.101562 87.699219 C 99.5 86.101562 101.199219 85.199219 102.800781 85.601562 C 112.898438 88.398438 121.699219 95.300781 127 104.5 C 127.800781 105.898438 127.300781 107.800781 125.898438 108.601562 C 125.398438 108.898438 124.898438 109 124.398438 109 Z M 124.398438 109 "/>
<path style=" stroke:none;fill-rule:nonzero;fill:rgb(100%,100%,100%);fill-opacity:1;" d="M 101.101562 105.601562 C 93.699219 92.699219 79.898438 84 64 84 C 48.101562 84 34.300781 92.699219 26.898438 105.601562 L 27 109 L 101 109 Z M 64 30 C 52.953125 30 44 38.953125 44 50 C 44 61.046875 52.953125 70 64 70 C 75.046875 70 84 61.046875 84 50 C 84 38.953125 75.046875 30 64 30 Z M 64 30 "/>
<path style=" stroke:none;fill-rule:nonzero;fill:rgb(0%,66.27451%,71.764706%);fill-opacity:1;" d="M 64 73 C 51.300781 73 41 62.699219 41 50 C 41 37.300781 51.300781 27 64 27 C 76.699219 27 87 37.300781 87 50 C 87 62.699219 76.699219 73 64 73 Z M 64 33 C 54.601562 33 47 40.601562 47 50 C 47 59.398438 54.601562 67 64 67 C 73.398438 67 81 59.398438 81 50 C 81 40.601562 73.398438 33 64 33 Z M 26.898438 109 C 26.398438 109 25.898438 108.898438 25.398438 108.601562 C 24 107.800781 23.5 106 24.300781 104.5 C 32.398438 90.300781 47.601562 81.398438 64 81.398438 C 80.398438 81.398438 95.601562 90.300781 103.699219 104.5 C 104.5 105.898438 104 107.800781 102.601562 108.601562 C 101.199219 109.398438 99.300781 108.898438 98.5 107.5 C 91.5 95.101562 78.300781 87.398438 64 87.398438 C 49.800781 87.398438 36.601562 95.101562 29.5 107.5 C 29 108.5 28 109 26.898438 109 Z M 26.898438 109 "/>
</g>
</svg>
