<?xml version="1.0" encoding="UTF-8"?>
<svg xmlns="http://www.w3.org/2000/svg" xmlns:xlink="http://www.w3.org/1999/xlink" width="100pt" height="100pt" viewBox="0 0 100 100" version="1.1">
<g id="surface1540592">
<path style=" stroke:none;fill-rule:nonzero;fill:rgb(0%,66.27451%,71.764706%);fill-opacity:1;" d="M 12 4 C 5.398438 4 0 9.398438 0 16 L 0 74 C 0 80.601562 5.398438 86 12 86 L 100 86 L 100 14 L 23.59375 14 C 22.601562 8.382812 17.898438 4 12 4 Z M 12 8 C 16.4375 8 20 11.5625 20 16 L 20 65.09375 C 17.875 63.179688 15.070312 62 12 62 C 8.929688 62 6.125 63.179688 4 65.09375 L 4 16 C 4 11.5625 7.5625 8 12 8 Z M 24 18 L 96 18 L 96 82 L 12 82 C 7.5625 82 4 78.4375 4 74 C 4 69.5625 7.5625 66 12 66 C 16.4375 66 20 69.5625 20 74 L 24 74 Z M 70 30 L 75.585938 35.585938 L 65 46.171875 L 54.09375 35.257812 L 36.6875 50.5 L 39.3125 53.5 L 53.90625 40.742188 L 65 51.828125 L 78.414062 38.414062 L 84 44 L 84 30 Z M 34 64 L 34 68 L 84 68 L 84 64 Z M 34 64 "/>
</g>
</svg>
