<?xml version="1.0" encoding="UTF-8"?>
<svg xmlns="http://www.w3.org/2000/svg" xmlns:xlink="http://www.w3.org/1999/xlink" width="100pt" height="100pt" viewBox="0 0 100 100" version="1.1">
<g id="surface1581991">
<path style=" stroke:none;fill-rule:nonzero;fill:rgb(0%,66.27451%,71.764706%);fill-opacity:1;" d="M 26.1875 9.5625 L 15.8125 22.75 L 12 19.375 L 6.6875 25.375 L 13.6875 31.625 L 16.875 34.4375 L 19.5 31.0625 L 32.5 14.4375 Z M 38 18 L 38 26 L 92 26 L 92 18 Z M 26.1875 37.5625 L 15.8125 50.75 L 12 47.375 L 6.6875 53.375 L 13.6875 59.625 L 16.875 62.4375 L 19.5 59.0625 L 32.5 42.4375 Z M 38 46 L 38 54 L 92 54 L 92 46 Z M 26.1875 65.5625 L 15.8125 78.75 L 12 75.375 L 6.6875 81.375 L 13.6875 87.625 L 16.875 90.4375 L 19.5 87.0625 L 32.5 70.4375 Z M 38 74 L 38 82 L 92 82 L 92 74 Z M 38 74 "/>
</g>
</svg>
