<?xml version="1.0" encoding="utf-8"?>
<!-- Generator: Adobe Illustrator 22.1.0, SVG Export Plug-In . SVG Version: 6.00 Build 0)  -->
<svg version="1.1" id="Layer_1" xmlns="http://www.w3.org/2000/svg" xmlns:xlink="http://www.w3.org/1999/xlink" x="0px" y="0px"
	 viewBox="0 0 495.2 406.1" style="enable-background:new 0 0 495.2 406.1;" xml:space="preserve">
<style type="text/css">
	.st0{fill:#EDF1F2;}
	.st1{fill:#FF727F;}
	.st2{fill:#002A54;}
	.st3{fill:#2CCAFA;}
	.st4{fill:#FFE200;}
	.st5{fill:#0070E1;}
	.st6{fill:#FFFFFF;stroke:#4F4F4F;stroke-width:19.3733;stroke-miterlimit:10;}
	.st7{fill:#FFC7DB;}
	.st8{fill:none;stroke:#FF4D5E;stroke-width:7.3327;stroke-linecap:round;stroke-linejoin:round;stroke-miterlimit:10;}
	.st9{clip-path:url(#SVGID_4_);}
	.st10{fill:#E7EBEC;}
	.st11{fill:#202020;}
</style>
<g>
	<path class="st0" d="M54.1,99.5"/>
	<path class="st1" d="M17.7,180.3v10.9c0,0-9.3,27.8,6,27c15-0.8,1.8-25.9,1.8-25.9l3.1-9.4L17.7,180.3z"/>
	<path class="st1" d="M182,25.1c0,0,15,52.8-1.2,57.2c-10.2,2.8-24.1-0.6-24.1-0.6l2.8,30.5l-28.5-14.6c0,0,7.2-42.6,10.3-64.2
		C143,21.6,171.8,20.6,182,25.1z"/>
	<path class="st2" d="M134.8,75.6c-4.1,1.2-17.4-3.4-14.6-19.7c0,0-11.1-7.6-9.1-17.7c2-10.2,10-11.1,12.3-10.3
		c0,0-3.4-15.6,7.9-22.4c7.8-4.7,18.1-0.3,23.3,5.2c0,0,4-10.8,15.4-8.3C181.6,4.8,182.1,16,182.1,16s14.5-1.2,16.9,9.5
		c2.5,10.7-5.7,15.5-5.7,15.5s7.4,9.7-5.3,14.8l-4.9-25c0,0-10.8,17.8-31.6,10.4c0,0-2.5,16.1-12.6,15.1L134.8,75.6z"/>
	<path class="st1" d="M144.9,60c0,0-9.2-15-13.7-10c-7.2,8,13.4,19.8,13.4,19.8L144.9,60z"/>
	<path class="st1" d="M218.9,69.7c0,0-14.6-12.1-11.3-15.2c3.3-3.1,9.2,3.9,9.2,3.9s0.5-23,9.8-20.6c8.6,2.2,1.2,28.8,1.2,28.8
		l1.7,12.5L219,78L218.9,69.7z"/>
	<path class="st2" d="M155.4,362.4c19.5-16,45.3-41.9,45.3-76c0-30.2-15.4-70.7-67.8-87.1l-66-8.7c-4.1,29.1,11.1,72.8,38.2,103.7
		c0,0-12.3,14.3-79.9,24.6l2,9.2c0,0,82.5,6.1,104.8-9.6c15.1-10.6-23.7-87.4-13.6-85.5c7.5,1.4,45.3,25.8,49.5,55.2
		c2.8,19.7-6.8,48.6-24.2,68.7L155.4,362.4z"/>
	<path class="st3" d="M30.2,327.5c0,0,5.2,11.2-1.2,22.5L18,320l8.9-1.4L30.2,327.5z"/>
	<path class="st3" d="M153.2,360c0,0,9.9,7.4,9.6,20.3l-22.3-19.6l5.6-7L153.2,360z"/>
	<path class="st3" d="M132.8,94.4c0,0,26.9,9.9,42.5,26c13.8,14.2,24.7,11.8,33.9,3.5c9.2-8.3,7.4-48.2,7.4-48.2l14,1.5
		c0,0,11.5,68.5-16.4,75.8c-22.3,5.9-58.8-4.9-58.8-4.9l-22.6,51.2l-66-8.7c0,0,6.6-42.8,42.6-74.7c0,0-62.3-0.1-77.2,69.2
		l-14.5-1.5c0,0-2.8-49.2,32.1-79.7C79.5,78.1,132.8,94.4,132.8,94.4z"/>
	<g>
		<defs>
			<path id="SVGID_1_" d="M132.8,94.4c0,0,25.9,10.9,42.5,26c14.3,13,24.7,11.8,33.9,3.5c9.2-8.3,7.4-48.2,7.4-48.2l14,1.5
				c0,0,11.5,68.5-16.4,75.8c-22.3,5.9-58.8-4.9-58.8-4.9l-22.6,51.2l-66-8.7c0,0,6.6-42.8,42.6-74.7c0,0-61.9-2-77.2,69.2L17.7,184
				c0,0-2.8-49.6,32.1-80.1C79.5,78.1,132.8,94.4,132.8,94.4z"/>
		</defs>
		<clipPath id="SVGID_2_">
			<use xlink:href="#SVGID_1_"  style="overflow:visible;"/>
		</clipPath>
	</g>
	<path class="st4" d="M131.5,94c0,0-9.1,91.5-6.7,91.5c4.9,0,35.8-76.9,35.8-76.9S145.9,98.2,131.5,94z"/>
	<path class="st2" d="M421.3,201.5l-6.6,8.7c0,0-9.3,27.9-21,18c-11.5-9.7,14.1-21.8,14.1-21.8l3.2-9.4L421.3,201.5z"/>
	<path class="st5" d="M453.7,280.2c0,0-10.8,20.2-39.7,27.3c-29,7.1-31-47.5-28.9-87.6c1.1-20.8-14.3-30-14.3-30l-47.1,2.3
		c0,0-52,42.5-40.4,94.6c8.6,38.8,40.9,57.7,70.2,65.7c1.6-6.1,3.5-12.2,5.2-18.3c-69.5-23.7-35.6-101.6-17.5-98.3
		c12.6,2.2-0.2,76.3,52.6,92.3c42.3,12.8,70.3-46.1,70.3-46.1L453.7,280.2z"/>
	<g>
		<path class="st4" d="M341,325.6l-13.6,16.6c8.5,4.5,17.4,7.8,26,10.1c1.2-4.5,2.5-9,3.8-13.4l1-5
			C351.6,331.6,345.9,328.8,341,325.6z"/>
		<path class="st4" d="M427.4,302.7l7.1,16.5c7.6-5.8,13.9-13,18.8-19.6l-9.5-7.6C439.6,295.7,434.3,299.5,427.4,302.7z"/>
	</g>
	<path class="st2" d="M449.9,312.3l-17.5-16.4l32.3-29.8l24.1,21.9c0,0-12,3.7-21.5-7.1L449.9,312.3z"/>
	<path class="st2" d="M340,350.5l8.2-22.5l40.2,18l-10.6,30.8c0,0-8.1-9.6-1.9-22.5L340,350.5z"/>
	<path class="st3" d="M406.6,109.2C394.2,87.7,372.9,89,372.9,89c19.2-19,31-38,16.2-57.6c-9.2-12.4-37.3-34.2-57.4-24.5
		C319,13,307.5,28,304.6,37l12.4,6.1l2.4,1.2c0,0,8.3-17.6,9.9-16.8c1,0.4-3.1,18-3.1,18l15.9,3.9l5-21.4l1.6,21.8l12.1,3.7
		c0,0,0.3,10.9-6,21.8c0,0,15.2-3.5,12.4-18.6c3.6-3.4,9.6-8.3,10.9-5.1c4.1,9.4-13.3,21.7-13.3,21.7l-0.9,9.1c0-2.2-0.8,28,0.3,29
		c0.5,0.4-10.9,0.3-20.3,0.1l-7.1,26.5l14.7,33C400.9,179.5,419.8,132.3,406.6,109.2z"/>
	<path class="st2" d="M364.2,111.4c-1.1-1-0.4-31.2-0.3-29l0.9-9.1c0,0,17.3-12.3,13.3-21.7c-1.4-3.1-7.3,1.8-10.9,5.1
		c-0.4,15.1-12.4,18.6-12.4,18.6c6.4-10.8,6-21.8,6-21.8l-12.1-3.7L347,28l-5,21.4l-15.9-3.9c0,0,4.1-17.6,3.1-18
		c-1.7-0.7-9.9,16.8-9.9,16.8l-2.4-1.2c-3,11.2-6.9,26.6-3.2,32.2c6.4,9.6,29,7.9,29,7.9l-10.1,28.1c0,0,7.8,7.5,14.4,7.7
		C356.5,119.1,364.7,111.9,364.2,111.4z"/>
	<path class="st2" d="M268.2,55.9c0,0,15.1-11.4,12-14.6c-3.1-3.3-9.3,3.4-9.3,3.4s0.6-23-8.9-21.1c-8.7,1.8-2.5,28.7-2.5,28.7
		l-2.3,12.4l12-1.6L268.2,55.9z"/>
	<path class="st6" d="M364.3,83"/>
	<path class="st6" d="M364.8,91.1"/>
	<path class="st7" d="M323.6,192.1l-1.9-54c0,0-46.8,0.4-62.6-18.3c-15.8-18.6-7.7-45.6-1.9-62.7L271,60c-1.4,7.6-8.2,29.5,4.2,43.7
		c10.1,11.5,36.7,0.5,60,0.4l12.8,16.1l15.6-16c26.8,1,62.7,21.1,67.8,49c5.2,28.4-9.7,51.4-9.7,51.4l-11.7-5.6
		c0,0,3.9-18.1,0.1-37.5c-4.3-22.3-32.4-21.2-32.4-21.2l-7,49.7L323.6,192.1z"/>
	<path class="st8" d="M404.5,116.2"/>
	<g>
		<defs>
			<path id="SVGID_3_" d="M323.6,192.1l-1.9-54c0,0-46.8,0.4-62.6-18.3c-15.8-18.6-7.7-45.6-1.9-62.7L271,60
				c-1.4,7.6-8.2,29.5,4.2,43.7c10.1,11.5,36.7,0.5,60,0.4l10.6,13.3l17.8-13.3c26.8,1,62.7,21.1,67.8,49
				c5.2,28.4-9.7,51.4-9.7,51.4l-11.7-5.6c0,0,3.9-18.1,0.1-37.5c-4.3-22.3-32.4-21.2-32.4-21.2l-7,49.7L323.6,192.1z"/>
		</defs>
		<clipPath id="SVGID_4_">
			<use xlink:href="#SVGID_3_"  style="overflow:visible;"/>
		</clipPath>
		<g class="st9">
			<g>
				<path class="st1" d="M372.8,105.3l-28.3,24.3l-21.7-24.7c-0.2,0,5.3-1.4,12.4-0.9l10.7,12.1l17.7-12.1
					C363.6,104.1,367.8,103.9,372.8,105.3z"/>
			</g>
		</g>
	</g>
	<polygon class="st1" points="342.5,120.4 321.8,131.6 332.8,145.3 344,129 352.4,149.3 365.9,133.5 346.1,120.5 	"/>
	<ellipse class="st10" cx="240.3" cy="396.5" rx="234" ry="5.6"/>
	<g>
		<g>
			<g>
				<path class="st11" d="M232.1,87.1c-5.3,0.9-10.6,0.3-15.7-1.5c-0.2-0.1-0.1-0.9,0.1-0.9c5.3-0.1,10.4,0.2,15.5,1.4
					C232.3,86.2,232.3,87.1,232.1,87.1z"/>
			</g>
		</g>
	</g>
	<g>
		<g>
			<g>
				<path class="st11" d="M37.4,174.7c-6.5,0.2-12.9-0.5-19.3-1.9c-0.2-0.1-0.2-0.9,0.1-0.9c6.5-0.5,13.1,0,19.4,1.9
					C37.8,173.9,37.7,174.7,37.4,174.7z"/>
			</g>
		</g>
	</g>
	<g>
		<g>
			<g>
				<path class="st11" d="M96.6,152.8c2.8,1,5.6,2,8.5,3l4.2,1.5l1.8,0.7c0,0,0,0,0.1,0l0,0.1l0,0.1l-0.1,0.2l-0.1,0.5l-0.2,0.9
					l-0.3,1.2l-0.3,1.1c-0.9,2.9-2,5.7-3.2,8.5c-1.2,2.8-2.6,5.5-4.4,8.1c-0.9,1.3-1.9,2.5-3.5,3.5c-0.4,0.2-0.9,0.4-1.4,0.6
					c-0.5,0.1-1.1,0.1-1.7-0.1c-1.1-0.3-1.9-1.1-2.4-1.9c-0.9-1.6-1.1-3.2-1.3-4.8c-0.1-1.6-0.1-3.1,0-4.6c0.4-6.1,1.5-12,2.9-17.8
					c0.2-0.9,1-0.8,0.9,0.2c-0.9,5.9-1.7,11.8-1.8,17.7c0,1.5,0,2.9,0.2,4.3c0.2,1.4,0.5,2.8,1.1,3.8c0.3,0.5,0.6,0.7,1,0.8
					c0.3,0.1,0.7,0,1.2-0.3c1-0.6,1.9-1.7,2.7-2.9c1.6-2.3,3-5,4.2-7.6c1.2-2.7,2.3-5.4,3.3-8.2l0.4-1l0.3-0.9
					c0-0.1,0.1-0.2,0.1-0.3c-0.1,0-0.1,0-0.2-0.1l-4.1-1.8c-2.7-1.2-5.5-2.4-8.2-3.6C95.4,153.3,95.8,152.5,96.6,152.8z"/>
			</g>
		</g>
	</g>
	<g>
		<g>
			<g>
				<path class="st11" d="M157.9,82.9c-2.2-0.2-4.3-1.3-5.9-2.9c-1.6-1.6-2.7-3.7-2.9-5.9c0-0.2,0.8-0.5,0.9-0.3
					c1.1,1.7,2.4,3.2,3.8,4.5c1.4,1.3,2.8,2.6,4.5,3.7C158.4,82.1,158.1,82.9,157.9,82.9z"/>
			</g>
		</g>
	</g>
	<g>
		<g>
			<g>
				<path class="st11" d="M72.2,208.9c3-4.6,6-8.7,9.4-13c0.1-0.2,0.9,0.2,0.8,0.4c-1.7,5.2-5,10-9.5,13.2
					C72.7,209.7,72.1,209.1,72.2,208.9z"/>
			</g>
		</g>
	</g>
	<g>
		<g>
			<g>
				<path class="st11" d="M35.6,326.9c-2-2.7-2.7-6.1-1.9-9.3c0-0.1,0.9-0.2,0.9-0.1c1.1,3,1.9,5.8,1.9,9.1
					C36.5,326.8,35.7,327,35.6,326.9z"/>
			</g>
		</g>
	</g>
	<g>
		<g>
			<g>
				<path class="st11" d="M159.8,358.9c-2.4-0.5-4.5-1.9-6.1-3.6c-1.6-1.7-2.9-3.6-4-5.6c-0.1-0.2,0.5-0.7,0.7-0.6
					c1.8,1.4,3.5,3,5,4.5c1.6,1.5,3,3,4.7,4.4C160.3,358.2,160,359,159.8,358.9z"/>
			</g>
		</g>
	</g>
	<g>
		<g>
			<g>
				<path class="st11" d="M350.4,78.6c-0.8,1.3-1.9,2.3-3.1,3.1c-1.2,0.7-2.5,1.2-3.9,1.7c-0.1,0-0.6-0.6-0.6-0.7
					c0.9-1.3,2-2.3,3.1-3c1.2-0.8,2.4-1.3,3.8-1.7C349.9,77.8,350.4,78.5,350.4,78.6z"/>
			</g>
		</g>
	</g>
	<g>
		<g>
			<g>
				<path class="st11" d="M378.2,132c1.1,2.9,1.1,5.7,0.1,8.6c0,0.1-0.9,0.2-0.9,0c-1-2.8-1.2-5.8-0.1-8.6
					C377.3,131.9,378.2,131.9,378.2,132z"/>
			</g>
		</g>
	</g>
	<g>
		<g>
			<g>
				<path class="st11" d="M426.1,195.3c-2.6-0.2-5.1-0.8-7.5-1.8c-1.2-0.5-2.3-1-3.5-1.7c-1.1-0.6-2.1-1.4-3.2-2
					c-0.2-0.1,0-0.9,0.3-0.9c1.4,0.2,2.6,0.6,3.8,1c1.2,0.4,2.4,0.8,3.5,1.3c2.3,0.9,4.6,1.9,6.9,3.2
					C426.6,194.5,426.3,195.3,426.1,195.3z"/>
			</g>
		</g>
	</g>
	<g>
		<g>
			<g>
				<path class="st11" d="M268.7,71.5c-5.3-0.2-10.3-1.1-15.3-2.6c-0.2-0.1-0.1-0.9,0.1-0.9c5.3-0.4,10.6,0.3,15.4,2.6
					C269.1,70.7,268.9,71.5,268.7,71.5z"/>
			</g>
		</g>
	</g>
	<g>
		<g>
			<g>
				<path class="st11" d="M374,206.5c-3.4-0.1-6.7-1.2-9.6-3.1c-2.8-1.9-5.1-4.7-6.4-7.7c-0.1-0.2,0.6-0.7,0.8-0.5
					c2.1,2.5,4.5,4.5,7,6.2c2.6,1.7,5.3,3.1,8.3,4.2C374.4,205.7,374.3,206.5,374,206.5z"/>
			</g>
		</g>
	</g>
	<g>
		<g>
			<g>
				<path class="st11" d="M343.9,332.9c-1.8,4.4-5.1,8.1-9.3,10.5l-1.1,0.6l0.1-1l0.1-0.7c0-0.2,0.9-0.3,0.9-0.1l0.2,0.6l-1-0.4
					c2.9-3.6,5.8-7,9.3-10.2C343.3,332.2,344,332.7,343.9,332.9z"/>
			</g>
		</g>
	</g>
	<g>
		<g>
			<g>
				<path class="st11" d="M437.5,318.4c-1.2-5.2-2.2-10-3.5-15.2c0-0.2,0.7-0.6,0.8-0.4c3.1,4.4,4.6,10.1,3.7,15.5
					C438.4,318.6,437.5,318.6,437.5,318.4z"/>
			</g>
		</g>
	</g>
	<g>
		<g>
			<g>
				<path class="st11" d="M150.6,116.4c-6.5-1.4-12.6-3.3-18.8-5.7c-0.2-0.1-0.1-0.9,0.2-0.9c6.6,0.6,13.1,2.4,18.9,5.7
					C151.2,115.6,150.9,116.4,150.6,116.4z"/>
			</g>
		</g>
	</g>
	<g>
		<g>
			<g>
				<path class="st11" d="M154.4,130.7c-8.5-0.9-16.8-2.9-24.8-5.9c-0.3-0.1-0.1-0.9,0.2-0.9c8.5,1.1,16.8,2.9,24.9,5.8
					C155,129.9,154.8,130.7,154.4,130.7z"/>
			</g>
		</g>
	</g>
	<g>
		<g>
			<g>
				<path class="st11" d="M140.9,145.9c-4.7-0.8-9.1-2.6-13-5.4c-0.2-0.1,0.2-0.9,0.3-0.8c4.7,0.9,9.1,2.6,13,5.3
					C141.5,145.1,141.1,145.9,140.9,145.9z"/>
			</g>
		</g>
	</g>
	<g>
		<g>
			<g>
				<path class="st11" d="M135.9,159.4c-3.2,0.6-6.3-0.1-8.9-2.1c-0.1-0.1,0.2-0.9,0.3-0.9c3.1,0.1,5.9,0.6,8.7,2
					C136.2,158.6,136,159.4,135.9,159.4z"/>
			</g>
		</g>
	</g>
</g>
</svg>
